<?xml version="1.0" encoding="UTF-8"?>
<svg version="1.1" xmlns="http://www.w3.org/2000/svg" width="135" height="118">
<path d="M0 0 C44.55 0 89.1 0 135 0 C135 38.94 135 77.88 135 118 C90.45 118 45.9 118 0 118 C0 79.06 0 40.12 0 0 Z " fill="#252524" transform="translate(0,0)"/>
<path d="M0 0 C1.93359375 1.08203125 1.93359375 1.08203125 3.25 2.4375 C6.93601737 5.872198 9.62757847 5.46738469 14.49609375 5.69921875 C17 6 17 6 19.6875 7.875 C21 10 21 10 21 13 C19.390625 14.46484375 19.390625 14.46484375 17.25 15.9375 C14.77909961 17.66972213 12.95627798 19.0519199 11 21.375 C8.47876618 23.42350248 6.58829789 23.43782539 3.40234375 23.25390625 C2.60957031 23.17011719 1.81679688 23.08632812 1 23 C0.05253906 22.90589844 -0.89492188 22.81179687 -1.87109375 22.71484375 C-10.1191962 21.63260865 -16.54949962 19.36634183 -22.5625 13.5 C-24.25605026 10.5546952 -24.82951061 9.31804245 -24 6 C-16.92282771 -0.9199018 -9.40800989 -0.95206194 0 0 Z " fill="#FAB000" transform="translate(45,57)"/>
<path d="M0 0 C2.3125 1.5 2.3125 1.5 4 4 C5.41617395 10.95212668 2.46584789 16.89863058 -0.85546875 22.91015625 C-3.47926918 26.69053173 -5.6218346 28.08104727 -9.984375 29.32421875 C-12.35306866 30.11837379 -13.43170714 31.07726324 -15 33 C-15.2165625 34.0209375 -15.2165625 34.0209375 -15.4375 35.0625 C-16 37 -16 37 -17.75 38.25 C-20.28517638 39.09505879 -22.34465608 39.05275518 -25 39 C-25.13277344 38.19175781 -25.26554687 37.38351563 -25.40234375 36.55078125 C-25.57894531 35.48214844 -25.75554688 34.41351563 -25.9375 33.3125 C-26.11152344 32.25675781 -26.28554688 31.20101562 -26.46484375 30.11328125 C-26.91820005 27.06862363 -26.91820005 27.06862363 -27.78515625 24.4765625 C-28.26142513 18.98648119 -23.21853281 14.11815743 -20 10 C-15.34802978 4.93697206 -7.30474643 -1.62327698 0 0 Z " fill="#F9B000" transform="translate(89,13)"/>
<path d="M0 0 C3.91284145 13.46282737 3.91284145 13.46282737 2 19 C-2.67399642 26.93987746 -8.97275389 34.99091796 -18 38 C-24.37546468 38.45539033 -24.37546468 38.45539033 -26.6875 36.76953125 C-28.83445622 33.8749742 -28.52208655 31.27433498 -28.4296875 27.7734375 C-27.51182398 21.84904571 -24.27668419 16.91502628 -21 12 C-18.90625 10.83203125 -18.90625 10.83203125 -16.5 9.8125 C-15.7059375 9.46832031 -14.911875 9.12414062 -14.09375 8.76953125 C-12 8 -12 8 -10 8 C-9.71125 6.865625 -9.4225 5.73125 -9.125 4.5625 C-8.75375 3.386875 -8.3825 2.21125 -8 1 C-5.29120665 -0.35439668 -2.99066732 -0.06501451 0 0 Z " fill="#FBB100" transform="translate(76,68)"/>
<path d="M0 0 C2.47128258 0.73259365 4.93823823 1.47294209 7.3984375 2.2421875 C10.07980782 3.08459776 10.07980782 3.08459776 13.25 3.5 C18.75490717 6.50267664 20.94955899 13.31158317 23.15234375 18.94921875 C24.07444131 22.2679201 24.30031354 25.12185502 24.3125 28.5625 C24.33763672 30.20412109 24.33763672 30.20412109 24.36328125 31.87890625 C23.92669506 35.62979192 22.69035596 38.30964404 20 41 C16.80119678 41.62415672 14.77239018 41.49481246 12 39.71875 C7.44844525 35.9257877 2.91352297 31.72234487 1 26 C0.79515616 22.31281094 0.87026093 18.75820383 1.1171875 15.07421875 C1.31788087 12.0120446 1.31788087 12.0120446 -0.47265625 10.26953125 C-0.97667969 9.85058594 -1.48070313 9.43164062 -2 9 C-2.42478586 4.92205575 -2.31282587 3.46923881 0 0 Z " fill="#FBB100" transform="translate(80,59)"/>
<path d="M0 0 C6.40919678 0.16022992 9.78966435 3.59081893 14 8 C14.80244141 8.83144531 14.80244141 8.83144531 15.62109375 9.6796875 C20.67636843 16.12408864 19.42263929 24.26100494 19 32 C20.485 32.495 20.485 32.495 22 33 C21.125 39.75 21.125 39.75 20 42 C17.64288002 41.38509914 15.32904037 40.71027472 13 40 C12.16984375 39.77828125 11.3396875 39.5565625 10.484375 39.328125 C6.58420536 38.09034661 3.82461396 37.09884605 1.3203125 33.76171875 C0.01449311 31.21575728 -1.03520837 28.69214783 -2 26 C-2.433125 24.9275 -2.86625 23.855 -3.3125 22.75 C-4.38602493 16.89440947 -4.82427212 10.909612 -4 5 C-1.9765625 2.0703125 -1.9765625 2.0703125 0 0 Z " fill="#FAB000" transform="translate(41,19)"/>
<path d="M0 0 C5.65739383 1.81316749 11.2687311 4.35584994 14.83984375 9.28515625 C15.58984375 12.91015625 15.58984375 12.91015625 14.83984375 16.28515625 C10.1443922 21.10751189 5.54021929 21.56066084 -0.91015625 21.66015625 C-9.55987215 21.75992008 -9.55987215 21.75992008 -13.09765625 18.78515625 C-16.88118185 15.69656392 -18.49482904 16.08188881 -23.1328125 16.359375 C-25.16015625 16.28515625 -25.16015625 16.28515625 -27.78515625 14.53515625 C-29.16015625 12.28515625 -29.16015625 12.28515625 -29.00390625 10.44140625 C-24.06358889 -2.18384922 -11.38831015 -2.57609488 0 0 Z " fill="#FCB200" transform="translate(104.16015625,40.71484375)"/>
<path d="M0 0 C3.5991308 5.3986962 4.26122419 10.6000073 4 17 C6.97 16.34 9.94 15.68 13 15 C13.04125 14.278125 13.0825 13.55625 13.125 12.8125 C14.39074179 8.74404426 16.49329792 7.31574666 20 5 C23.375 4.6875 23.375 4.6875 26 5 C19.84965831 12.48291572 19.84965831 12.48291572 16 15 C16.57344937 17.86724686 16.8614515 18.8614515 19 21 C20.97941864 21.05244003 20.97941864 21.05244003 23.1875 20.8125 C26.84713488 20.70810471 28.49823975 21.02367522 31.25 23.4375 C36.00336134 27.43438816 42.05961429 26.90173798 48 27 C48 27.33 48 27.66 48 28 C39.27687592 29.18717073 32.57489824 29.16256014 24.328125 25.91015625 C22.10616567 24.87863176 22.10616567 24.87863176 20 25 C19.34 27.64 18.68 30.28 18 33 C18.99 33.33 19.98 33.66 21 34 C23.19218189 38.38436379 22.15774649 44.36901402 21 49 C20.34 49 19.68 49 19 49 C18.49750857 46.70887834 17.99807883 44.41708499 17.5 42.125 C17.2215625 40.84882812 16.943125 39.57265625 16.65625 38.2578125 C16 35 16 35 16 33 C13.36 33.33 10.72 33.66 8 34 C7.9175 34.7425 7.835 35.485 7.75 36.25 C6.83227052 39.6150081 5.69900053 40.82580513 3 43 C-0.53070928 44.85362237 -2.23677779 45.10823705 -6 44 C1.11389522 36.33257403 1.11389522 36.33257403 6 35 C4.24545615 31.81765895 4.24545615 31.81765895 2 29 C0.25120432 28.89436805 -1.49924318 28.81553635 -3.25 28.75 C-7.07637852 28.4564287 -9.46440327 28.23952707 -12.1875 25.4375 C-12.785625 24.633125 -13.38375 23.82875 -14 23 C-13.67 22.34 -13.34 21.68 -13 21 C-8.1008651 22.29977048 -3.62440425 23.92373687 1 26 C1.24954005 24.56589632 1.47392642 23.12739928 1.6875 21.6875 C1.81511719 20.88699219 1.94273438 20.08648437 2.07421875 19.26171875 C2.25685203 16.92201007 2.25685203 16.92201007 0.53515625 15.55078125 C-1 14 -1 14 -1.328125 11.40625 C-1.30234375 10.4471875 -1.2765625 9.488125 -1.25 8.5 C-1.23453125 7.5409375 -1.2190625 6.581875 -1.203125 5.59375 C-1 3 -1 3 0 0 Z " fill="#2B2823" transform="translate(60,35)"/>
<path d="M0 0 C2.5625 -0.3125 2.5625 -0.3125 6 0 C7.59775349 1.27168135 9.1951891 2.54377136 10.7890625 3.8203125 C15.38456712 6.27233087 20.89003004 5.91547418 26 6 C26 6.33 26 6.66 26 7 C16.47573415 8.29620186 8.80055314 8.17878614 0 4 C-0.66 3.34 -1.32 2.68 -2 2 C-1.34 2 -0.68 2 0 2 C0 1.34 0 0.68 0 0 Z " fill="#473C20" transform="translate(82,56)"/>
<path d="M0 0 C0.33 0.99 0.66 1.98 1 3 C1.99 3.33 2.98 3.66 4 4 C6.19218189 8.38436379 5.15774649 14.36901402 4 19 C3.34 19 2.68 19 2 19 C1.49750857 16.70887834 0.99807883 14.41708499 0.5 12.125 C0.2215625 10.84882812 -0.056875 9.57265625 -0.34375 8.2578125 C-1 5 -1 5 -1 3 C-1.99 2.67 -2.98 2.34 -4 2 C-2.68 2 -1.36 2 0 2 C0 1.34 0 0.68 0 0 Z " fill="#373121" transform="translate(77,65)"/>
<path d="M0 0 C-3.67832017 4.52615993 -7.41086363 8.39424999 -12 12 C-12.9375 9.375 -12.9375 9.375 -13 6 C-9.57106556 1.35839363 -5.84722412 -0.85569133 0 0 Z " fill="#373123" transform="translate(86,40)"/>
<path d="M0 0 C4.10899581 1.12795963 8.07561214 2.33510818 12 4 C12 4.66 12 5.32 12 6 C12.66 6.33 13.32 6.66 14 7 C5.22421525 7.76681614 5.22421525 7.76681614 2.22265625 5.88671875 C0.875 4.5 0.875 4.5 -1 2 C-0.67 1.34 -0.34 0.68 0 0 Z " fill="#322D21" transform="translate(47,56)"/>
</svg>
